<?xml version="1.0" encoding="UTF-8"?> <svg xmlns="http://www.w3.org/2000/svg" width="88" height="60" viewBox="0 0 88 60" fill="none"><rect width="87.1429" height="60" rx="4" fill="#1F72CD"></rect><path fill-rule="evenodd" clip-rule="evenodd" d="M16.6347 21.25L8.71436 39.3669H18.1961L19.3715 36.4783H22.0584L23.2338 39.3669H33.6706V37.1622L34.6005 39.3669H39.9992L40.9292 37.1156V39.3669H62.6348L65.274 36.5533L67.7454 39.3669L78.8938 39.3902L70.9485 30.359L78.8938 21.25H67.9183L65.3491 24.0116L62.9556 21.25H39.3428L37.3151 25.9261L35.2399 21.25H25.778V23.3796L24.7254 21.25H16.6347ZM49.0474 23.8226H61.5118L65.3241 28.0791L69.2592 23.8226H73.0715L67.2791 30.3565L73.0715 36.815H69.0863L65.274 32.5091L61.3188 36.815H49.0474V23.8226ZM52.1255 28.8874V26.5143V26.512H59.9028L63.2964 30.3073L59.7525 34.1233H52.1255V31.5325H58.9253V28.8874H52.1255ZM18.4693 23.8226H23.0912L28.3447 36.1078V23.8226H33.4078L37.4655 32.631L41.2052 23.8226H46.243V36.8227H43.1776L43.1526 26.6359L38.6836 36.8227H35.9415L31.4475 26.6359V36.8227H25.1414L23.9458 33.9082H17.4869L16.2938 36.8201H12.9151L18.4693 23.8226ZM18.5897 31.214L20.7177 26.0222L22.8432 31.214H18.5897Z" fill="white"></path></svg> 