<?xml version="1.0" encoding="UTF-8"?> <svg xmlns="http://www.w3.org/2000/svg" width="88" height="60" viewBox="0 0 88 60" fill="none"><path d="M47.418 48.7498C57.122 48.7968 65.9794 40.7303 65.9794 30.9174C65.9794 20.1873 57.122 12.7696 47.418 12.7736H39.0663C29.2466 12.7696 21.1631 20.1893 21.1631 30.9174C21.1631 40.7323 29.2466 48.7968 39.0663 48.7498H47.418Z" fill="#0079BE"></path><path d="M39.1062 14.2606C30.1322 14.2636 22.8614 21.6332 22.8584 30.7291C22.8614 39.8241 30.1322 47.1937 39.1062 47.1967C48.0812 47.1937 55.355 39.8241 55.356 30.7291C55.355 21.6332 48.0822 14.2636 39.1062 14.2606ZM28.8078 30.7291C28.806 28.6261 29.436 26.5714 30.6155 24.8336C31.7951 23.0957 33.4693 21.7556 35.4195 20.9884V40.4689C33.4692 39.7022 31.7947 38.3624 30.6151 36.6246C29.4355 34.8869 28.8056 32.8322 28.8078 30.7291V30.7291ZM42.7919 40.4729V20.9874C44.7435 21.7535 46.4192 23.0935 47.5996 24.8319C48.7801 26.5703 49.4102 28.6261 49.4075 30.7302C49.4098 32.8341 48.7795 34.8897 47.5991 36.628C46.4188 38.3663 44.7433 39.7064 42.7919 40.4729V40.4729Z" fill="white"></path><path d="M47.418 48.7498C57.122 48.7968 65.9794 40.7303 65.9794 30.9174C65.9794 20.1873 57.122 12.7696 47.418 12.7736H39.0663C29.2466 12.7696 21.1631 20.1893 21.1631 30.9174C21.1631 40.7323 29.2466 48.7968 39.0663 48.7498H47.418Z" fill="#0079BE"></path><path d="M39.1062 14.2606C30.1322 14.2636 22.8614 21.6332 22.8584 30.7291C22.8614 39.8241 30.1322 47.1937 39.1062 47.1967C48.0812 47.1937 55.355 39.8241 55.356 30.7291C55.355 21.6332 48.0822 14.2636 39.1062 14.2606ZM28.8078 30.7291C28.806 28.6261 29.436 26.5714 30.6155 24.8336C31.7951 23.0957 33.4693 21.7556 35.4195 20.9884V40.4689C33.4692 39.7022 31.7947 38.3624 30.6151 36.6246C29.4355 34.8869 28.8056 32.8322 28.8078 30.7291V30.7291ZM42.7919 40.4729V20.9874C44.7435 21.7535 46.4192 23.0935 47.5996 24.8319C48.7801 26.5703 49.4102 28.6261 49.4075 30.7302C49.4098 32.8341 48.7795 34.8897 47.5991 36.628C46.4188 38.3663 44.7433 39.7064 42.7919 40.4729V40.4729Z" fill="white"></path></svg> 