<?xml version="1.0" encoding="UTF-8"?> <svg xmlns="http://www.w3.org/2000/svg" width="88" height="60" viewBox="0 0 88 60" fill="none"><path d="M37.3467 57.5L84.6528 43.125V54.5C84.6528 56.1569 83.3097 57.5 81.6528 57.5H37.3467Z" fill="#FD6020"></path><path fill-rule="evenodd" clip-rule="evenodd" d="M75.6739 22.7771C78.2764 22.7771 79.7078 23.986 79.7078 26.2694C79.838 28.0155 78.6668 29.493 77.1053 29.7616L80.6187 34.7313H77.886L74.8931 29.8959H74.6328V34.7313H72.4206V22.7771H75.6739ZM74.6328 28.2842H75.2835C76.7149 28.2842 77.3655 27.6126 77.3655 26.4037C77.3655 25.3292 76.7149 24.6576 75.2835 24.6576H74.6328V28.2842ZM64.7431 34.7313H70.9893V32.7166H66.9553V29.493H70.8591V27.4782H66.9553V24.7919H70.9893V22.7771H64.7431V34.7313ZM58.2367 30.8361L55.2437 22.7771H52.9014L57.7161 35H58.8873L63.7021 22.7771H61.3597L58.2367 30.8361ZM31.8206 28.8214C31.8206 32.1793 34.4231 35 37.6764 35C38.7174 35 39.6283 34.7314 40.5392 34.3284V31.6421C39.8885 32.448 38.9776 32.9852 37.9366 32.9852C35.8546 32.9852 34.1629 31.3734 34.1629 29.2244V28.9557C34.0328 26.8066 35.7244 24.9262 37.8065 24.7919C38.8475 24.7919 39.8885 25.3292 40.5392 26.1351V23.4487C39.7584 22.9114 38.7174 22.7771 37.8065 22.7771C34.4232 22.5085 31.8206 25.3292 31.8206 28.8214ZM27.7866 27.3439C26.4853 26.8066 26.0949 26.538 26.0949 25.8664C26.225 25.0605 26.8757 24.3889 27.6565 24.5232C28.3071 24.5232 28.9577 24.9262 29.4783 25.4635L30.6494 23.8517C29.7385 23.0458 28.5674 22.5085 27.3962 22.5085C25.5744 22.3742 24.0129 23.8517 23.8827 25.7321V25.8664C23.8827 27.4782 24.5334 28.4184 26.6154 29.09C27.1359 29.2244 27.6565 29.493 28.177 29.7616C28.5674 30.0303 28.8276 30.4332 28.8276 30.9705C28.8276 31.9107 28.0468 32.7166 27.2661 32.7166H27.1359C26.0949 32.7166 25.184 32.045 24.7936 31.1048L23.3622 32.5823C24.143 34.0598 25.7045 34.8657 27.2661 34.8657C29.3481 35 31.0398 33.3882 31.1699 31.2391V30.8362C31.0398 29.2244 30.3892 28.4184 27.7866 27.3439ZM20.2391 34.7313H22.4513V22.7771H20.2391V34.7313ZM9.95898 22.7771H13.2122H13.8628C16.9859 22.9115 19.4584 25.5978 19.3282 28.8214C19.3282 30.5675 18.5475 32.1794 17.2462 33.3882C16.075 34.3284 14.6436 34.8657 13.2122 34.7314H9.95898V22.7771ZM12.8218 32.7166C13.8628 32.8509 15.034 32.4479 15.8148 31.7764C16.5955 30.9705 16.9859 29.8959 16.9859 28.6871C16.9859 27.6125 16.5955 26.538 15.8148 25.7321C15.034 25.0605 13.8628 24.6575 12.8218 24.7919H12.1712V32.7166H12.8218Z" fill="black"></path><path fill-rule="evenodd" clip-rule="evenodd" d="M47.1759 22.5C43.9226 22.5 41.1899 25.1863 41.1899 28.6786C41.1899 32.0365 43.7925 34.8572 47.1759 34.9915C50.5592 35.1258 53.1618 32.3052 53.2919 28.8129C53.1618 25.3207 50.5592 22.5 47.1759 22.5V22.5Z" fill="#FD6020"></path></svg> 