<?xml version="1.0" encoding="UTF-8"?> <svg xmlns="http://www.w3.org/2000/svg" width="89" height="60" viewBox="0 0 89 60" fill="none"><path d="M50.8526 30.3174C50.8526 39.8484 43.1213 47.5749 33.5842 47.5749C24.0472 47.5749 16.3159 39.8484 16.3159 30.3174C16.3159 20.7864 24.0472 13.0599 33.5842 13.0599C43.1213 13.0599 50.8526 20.7864 50.8526 30.3174Z" fill="#ED0006"></path><path d="M73.2549 30.3174C73.2549 39.8484 65.5236 47.5749 55.9866 47.5749C46.4495 47.5749 38.7183 39.8484 38.7183 30.3174C38.7183 20.7864 46.4495 13.0599 55.9866 13.0599C65.5236 13.0599 73.2549 20.7864 73.2549 30.3174Z" fill="#0099DF"></path><path fill-rule="evenodd" clip-rule="evenodd" d="M44.7854 43.4522C41.0726 40.2868 38.7183 35.5769 38.7183 30.3174C38.7183 25.0579 41.0726 20.3479 44.7854 17.1826C48.4983 20.3479 50.8526 25.0579 50.8526 30.3174C50.8526 35.5769 48.4983 40.2868 44.7854 43.4522Z" fill="#6C6BBD"></path></svg> 