<?xml version="1.0" encoding="UTF-8"?> <svg xmlns="http://www.w3.org/2000/svg" width="88" height="60" viewBox="0 0 88 60" fill="none"><path fill-rule="evenodd" clip-rule="evenodd" d="M44.1938 42.8923C41.227 45.463 37.3786 47.0149 33.1734 47.0149C23.7902 47.0149 16.1836 39.2885 16.1836 29.7575C16.1836 20.2264 23.7902 12.5 33.1734 12.5C37.3786 12.5 41.227 14.0519 44.1938 16.6226C47.1606 14.0519 51.009 12.5 55.2142 12.5C64.5974 12.5 72.204 20.2264 72.204 29.7575C72.204 39.2885 64.5974 47.0149 55.2142 47.0149C51.009 47.0149 47.1606 45.463 44.1938 42.8923Z" fill="#ED0006"></path><path fill-rule="evenodd" clip-rule="evenodd" d="M44.1938 42.8923C47.8469 39.727 50.1632 35.017 50.1632 29.7575C50.1632 24.4979 47.8469 19.7879 44.1938 16.6226C47.1606 14.0519 51.009 12.5 55.2143 12.5C64.5975 12.5 72.2041 20.2264 72.2041 29.7575C72.2041 39.2885 64.5975 47.0149 55.2143 47.0149C51.009 47.0149 47.1606 45.463 44.1938 42.8923Z" fill="#F9A000"></path><path fill-rule="evenodd" clip-rule="evenodd" d="M44.1939 16.6227C47.8469 19.788 50.1632 24.498 50.1632 29.7575C50.1632 35.017 47.8469 39.7269 44.1939 42.8923C40.5409 39.7269 38.2246 35.017 38.2246 29.7575C38.2246 24.498 40.5409 19.788 44.1939 16.6227Z" fill="#FF5E00"></path></svg> 