<?xml version="1.0" encoding="UTF-8"?> <svg xmlns="http://www.w3.org/2000/svg" width="89" height="60" viewBox="0 0 89 60" fill="none"><path d="M27.4011 12.5038H41.3594C43.3078 12.5038 44.5197 14.0728 44.0651 16.0041L37.5666 43.5675C37.1079 45.492 35.1571 47.0623 33.2073 47.0623H19.2504C17.3046 47.0623 16.09 45.492 16.5446 43.5675L23.0459 16.0041C23.5004 14.0728 25.4502 12.5038 27.4011 12.5038Z" fill="#E21836"></path><path d="M40.1971 12.5H56.2487C58.1968 12.5 57.3184 14.0689 56.8601 16.0002L50.3626 43.5636C49.9067 45.4882 50.0489 47.0585 48.0967 47.0585H32.045C30.0928 47.0585 28.8847 45.4882 29.3433 43.5636L35.8405 16.0002C36.3019 14.0689 38.2476 12.5 40.1971 12.5Z" fill="#00447C"></path><path d="M55.6124 12.5H69.5707C71.5219 12.5 72.7338 14.0689 72.2755 16.0002L65.7779 43.5636C65.3193 45.4882 63.3671 47.0585 61.4163 47.0585H47.4644C45.5122 47.0585 44.3014 45.4882 44.7587 43.5636L51.2572 16.0002C51.7118 14.0689 53.6602 12.5 55.6124 12.5Z" fill="#007B84"></path><path d="M31.0459 21.3333C29.6105 21.3478 29.1866 21.3333 29.0512 21.3017C28.9992 21.5461 28.0306 25.9601 28.0278 25.9638C27.8193 26.8569 27.6675 27.4935 27.1521 27.9045C26.8595 28.1435 26.5179 28.2588 26.1219 28.2588C25.4854 28.2588 25.1145 27.9465 25.0522 27.3543L25.0403 27.151C25.0403 27.151 25.2343 25.9548 25.2343 25.948C25.2343 25.948 26.2509 21.9255 26.4329 21.3938C26.4424 21.3636 26.4451 21.3478 26.4475 21.3333C24.4688 21.3504 24.118 21.3333 24.0938 21.3017C24.0806 21.3451 24.0316 21.5945 24.0316 21.5945L22.9936 26.1282L22.9044 26.5127L22.7319 27.7704C22.7319 28.1435 22.8061 28.448 22.9538 28.7055C23.4267 29.5219 24.7756 29.6442 25.5388 29.6442C26.522 29.6442 27.4443 29.4378 28.0676 29.0611C29.1495 28.4295 29.4326 27.4424 29.6851 26.5651L29.8021 26.1151C29.8021 26.1151 30.8493 21.9373 31.0272 21.3938C31.034 21.3636 31.0368 21.3478 31.0459 21.3333ZM34.609 24.7036C34.3565 24.7036 33.8952 24.7641 33.4808 24.9647C33.3304 25.041 33.1882 25.1291 33.0382 25.2168L33.1736 24.7338L33.0994 24.6525C32.2206 24.8283 32.024 24.8518 31.2122 24.9647L31.1442 25.0094C31.0499 25.7815 30.9662 26.3619 30.6168 27.8794C30.4838 28.4387 30.3457 29.0034 30.2072 29.5613L30.2446 29.6322C31.0765 29.5889 31.3289 29.5889 32.0519 29.6006L32.1104 29.5378C32.2023 29.073 32.2142 28.9641 32.4176 28.0226C32.5132 27.5763 32.7126 26.5955 32.8109 26.2463C32.9916 26.1636 33.1698 26.0823 33.34 26.0823C33.7452 26.0823 33.6958 26.4315 33.6802 26.5707C33.6628 26.8042 33.5152 27.5672 33.3638 28.2223L33.2627 28.6451C33.1923 28.9573 33.1151 29.2608 33.0446 29.5704L33.0753 29.6322C33.8952 29.5889 34.1453 29.5889 34.8454 29.6006L34.9278 29.5378C35.0543 28.8118 35.0914 28.6175 35.316 27.5605L35.4289 27.0748C35.6484 26.1243 35.7586 25.6423 35.5926 25.2498C35.417 24.8098 34.9958 24.7036 34.609 24.7036ZM38.5893 25.6988C38.1535 25.7814 37.8755 25.8366 37.5993 25.8722C37.3254 25.9155 37.0583 25.9549 36.6371 26.0127L36.6038 26.0426L36.5732 26.0665C36.5293 26.3763 36.4986 26.6442 36.4405 26.9592C36.3911 27.2848 36.3153 27.6549 36.1918 28.1866C36.0962 28.5936 36.0468 28.7355 35.9924 28.8787C35.9393 29.0218 35.8808 29.161 35.7733 29.5613L35.7985 29.5983L35.8196 29.6322C36.2132 29.6137 36.4707 29.6006 36.7354 29.5983C36.9998 29.5889 37.2737 29.5983 37.6976 29.6006L37.7347 29.5707L37.7745 29.5378C37.8357 29.1768 37.8449 29.0797 37.8823 28.9035C37.9194 28.7146 37.9834 28.4531 38.1402 27.7547C38.2144 27.4267 38.2971 27.0996 38.3739 26.7649C38.4539 26.4315 38.5376 26.1031 38.6172 25.7751L38.6053 25.7354L38.5893 25.6988ZM38.5986 24.357C38.2026 24.126 37.5075 24.1993 37.0397 24.5183C36.5733 24.8309 36.5202 25.2745 36.9148 25.5085C37.3041 25.733 38.0018 25.6661 38.4656 25.3444C38.931 25.0251 38.9892 24.5855 38.5986 24.357ZM40.9936 29.7046C41.7948 29.7046 42.6161 29.4864 43.2343 28.8391C43.7099 28.3141 43.928 27.533 44.0035 27.2113C44.2495 26.1452 44.058 25.6474 43.8174 25.3443C43.452 24.8821 42.8063 24.7339 42.1364 24.7339C41.7336 24.7339 40.7741 24.7732 40.0246 25.4559C39.4864 25.9482 39.2377 26.6164 39.0877 27.257C38.9363 27.9098 38.7621 29.0848 39.8559 29.5221C40.1934 29.6652 40.6799 29.7046 40.9936 29.7046ZM40.931 27.3058C41.1157 26.4985 41.3338 25.8209 41.8904 25.8209C42.3266 25.8209 42.3582 26.325 42.1643 27.135C42.1296 27.3149 41.9704 27.9834 41.755 28.2681C41.6046 28.4781 41.4267 28.6055 41.23 28.6055C41.1715 28.6055 40.8235 28.6055 40.818 28.095C40.8153 27.8429 40.8674 27.5854 40.931 27.3058ZM46.0064 29.6007L46.069 29.5379C46.1578 29.0731 46.1725 28.9638 46.3691 28.0227C46.4674 27.5764 46.6709 26.5956 46.7665 26.2464C46.9475 26.1634 47.1227 26.0821 47.2982 26.0821C47.7007 26.0821 47.6517 26.4313 47.6357 26.5704C47.6211 26.8043 47.4735 27.567 47.3193 28.222L47.2237 28.6449C47.1506 28.9574 47.071 29.2606 47.0006 29.5705L47.0312 29.6323C47.8538 29.589 48.0944 29.589 48.7986 29.6007L48.8837 29.5379C49.0072 28.8116 49.0405 28.6173 49.2719 27.5606L49.3821 27.0746C49.6026 26.1241 49.7142 25.6424 49.5509 25.2499C49.3702 24.8099 48.9463 24.7037 48.5649 24.7037C48.3121 24.7037 47.8484 24.7638 47.4364 24.9648C47.2891 25.0411 47.1414 25.1289 46.9965 25.2169L47.1227 24.7339L47.055 24.6523C46.1765 24.8284 45.9758 24.8519 45.1651 24.9648L45.1028 25.0095C45.0045 25.7816 44.9245 26.3617 44.5751 27.8795C44.4421 28.4388 44.304 29.0035 44.1658 29.5614L44.2029 29.6323C45.0361 29.589 45.2848 29.589 46.0064 29.6007ZM52.0506 29.6322C52.1024 29.3828 52.4096 27.9046 52.4123 27.9046C52.4123 27.9046 52.6739 26.82 52.6899 26.7806C52.6899 26.7806 52.7723 26.6677 52.8546 26.623H52.9757C54.1185 26.623 55.409 26.623 56.4205 25.888C57.1087 25.3838 57.5793 24.6393 57.7892 23.7345C57.8436 23.5127 57.8838 23.2488 57.8838 22.985C57.8838 22.6385 57.8133 22.2956 57.6099 22.0278C57.0941 21.3149 56.067 21.3018 54.8813 21.2964C54.8775 21.2964 54.2968 21.3018 54.2968 21.3018C52.7791 21.3203 52.1704 21.3149 51.9203 21.2846C51.8992 21.3939 51.8594 21.5881 51.8594 21.5881C51.8594 21.5881 51.3158 24.0773 51.3158 24.0814C51.3158 24.0814 50.0148 29.3737 49.9535 29.6231C51.2787 29.6073 51.822 29.6073 52.0506 29.6322ZM53.058 25.2104C53.058 25.2104 53.6361 22.7262 53.6334 22.7356L53.6521 22.6082L53.6602 22.5111L53.8912 22.5346C53.8912 22.5346 55.0834 22.6358 55.1113 22.6385C55.5818 22.8183 55.7757 23.2818 55.6403 23.8868C55.5168 24.4397 55.1538 24.9045 54.6874 25.129C54.3033 25.3193 53.8327 25.3351 53.3479 25.3351H53.0342L53.058 25.2104ZM56.657 27.3518C56.5043 27.9951 56.3287 29.1701 57.4171 29.5889C57.7641 29.7348 58.0751 29.7781 58.3912 29.7623C58.7249 29.7445 59.0342 29.5792 59.3206 29.3412C59.2948 29.439 59.2689 29.5368 59.2431 29.635L59.2924 29.6978C60.0753 29.6652 60.3182 29.6652 61.1663 29.6716L61.2432 29.6138C61.3671 28.8945 61.4838 28.1961 61.8056 26.8201C61.9625 26.161 62.119 25.5083 62.2799 24.8518L62.2547 24.7796C61.379 24.9399 61.1449 24.9742 60.3025 25.0922L60.2386 25.1436C60.2301 25.2105 60.2212 25.2747 60.213 25.3389C60.0821 25.1298 59.8922 24.9513 59.5993 24.8401C59.2247 24.6945 58.3449 24.8821 57.5886 25.5624C57.0571 26.048 56.802 26.7135 56.657 27.3518ZM58.4963 27.3911C58.6837 26.5982 58.8991 25.9274 59.4571 25.9274C59.8099 25.9274 59.9956 26.249 59.9579 26.7976C59.9279 26.9344 59.8956 27.0785 59.8572 27.2416C59.8014 27.4772 59.7408 27.7108 59.682 27.9447C59.6221 28.1047 59.5523 28.2556 59.4758 28.3561C59.3322 28.5571 58.9906 28.6818 58.794 28.6818C58.7382 28.6818 58.3939 28.6818 58.382 28.1803C58.3792 27.9306 58.4313 27.6734 58.4963 27.3911ZM68.1009 24.7732L68.0332 24.6969C67.1667 24.8703 67.0098 24.8978 66.2137 25.0041L66.1552 25.0619C66.1525 25.0713 66.1501 25.0857 66.146 25.0988L66.1433 25.0857C65.5506 26.4365 65.568 26.1451 65.0855 27.2086C65.0828 27.1602 65.0828 27.1299 65.0801 27.0785L64.9593 24.7732L64.8834 24.6969C63.9757 24.8703 63.9543 24.8978 63.116 25.0041L63.0507 25.0619C63.0415 25.0894 63.0415 25.1197 63.036 25.1526L63.0415 25.1644C63.1463 25.6934 63.1211 25.5754 63.2262 26.4103C63.2752 26.82 63.3405 27.2321 63.3895 27.6368C63.4722 28.314 63.5185 28.6475 63.6195 29.681C63.0534 30.6039 62.9193 30.9531 62.3743 31.7632L62.3781 31.7712L61.9943 32.3708C61.9504 32.434 61.9106 32.4774 61.8548 32.4959C61.7935 32.5258 61.7139 32.5312 61.6034 32.5312H61.3907L61.0747 33.5697L62.1589 33.5882C62.7955 33.5855 63.1956 33.2914 63.411 32.8962L64.0928 31.742H64.0819L64.1537 31.6606C64.6123 30.6853 68.1009 24.7732 68.1009 24.7732ZM56.657 38.4132H56.197L57.8995 32.8503H58.4643L58.6436 32.2772L58.6609 32.9145C58.6398 33.3084 58.9535 33.6576 59.7775 33.5998H60.7305L61.0585 32.5286H60.6999C60.4937 32.5286 60.3981 32.4772 60.41 32.367L60.3927 31.7186H58.6279V31.722C58.0574 31.7337 56.3535 31.7761 56.0085 31.8668C55.5911 31.9731 55.1512 32.2856 55.1512 32.2856L55.324 31.7119H53.6733L53.3293 32.8503L51.604 38.4982H51.2693L50.9409 39.5617H54.2288L54.1186 39.9163H55.7388L55.8463 39.5617H56.3008L56.657 38.4132ZM55.308 33.9806C55.0437 34.0529 54.5517 34.272 54.5517 34.272L54.9892 32.8503H56.3008L55.9844 33.8862C55.9844 33.8862 55.5792 33.9097 55.308 33.9806ZM55.3332 36.0117C55.3332 36.0117 54.9212 36.0628 54.65 36.1233C54.383 36.2033 53.8822 36.4554 53.8822 36.4554L54.334 34.9758H55.6523L55.3332 36.0117ZM54.5983 38.4263H53.2827L53.6641 37.1777H54.9756L54.5983 38.4263ZM57.7667 34.9758H59.6631L59.3906 35.8477H57.469L57.1805 36.8009H58.8619L57.5887 38.5718C57.4996 38.7019 57.4197 38.748 57.3309 38.7846C57.2417 38.8293 57.1247 38.8817 56.9893 38.8817H56.5228L56.2023 39.9257H57.4224C58.0565 39.9257 58.4311 39.6407 58.7077 39.2666L59.5807 38.0862L59.7682 39.2847C59.808 39.5092 59.9713 39.6407 60.0819 39.6917C60.204 39.7522 60.3303 39.8561 60.5085 39.8716C60.6997 39.8796 60.8379 39.886 60.9297 39.886H61.5292L61.8891 38.7177H61.6527C61.5169 38.7177 61.2832 38.6952 61.2434 38.6532C61.2036 38.6021 61.2036 38.5234 61.1822 38.4038L60.992 37.2025H60.2132L60.5548 36.8009H62.4726L62.7676 35.8477H60.992L61.2686 34.9758H63.0388L63.3671 33.9006H58.0896L57.7667 34.9758ZM41.7496 38.6691L42.1923 37.2144H44.0114L44.3438 36.1325H42.523L42.8009 35.2371H44.5803L44.91 34.1894H40.4578L40.1349 35.2371H41.1464L40.8766 36.1325H39.8624L39.5263 37.2329H40.5374L39.9475 39.1574C39.8679 39.4122 39.9849 39.5093 40.0591 39.6276C40.1349 39.7429 40.2118 39.8192 40.3847 39.8626C40.5629 39.9019 40.6851 39.9254 40.8511 39.9254H42.902L43.2674 38.7269L42.3583 38.8502C42.1827 38.8502 41.6966 38.8294 41.7496 38.6691ZM41.9583 31.7053L41.4973 32.5285C41.3986 32.7083 41.3098 32.8199 41.2299 32.8713C41.1595 32.9147 41.02 32.9328 40.8179 32.9328H40.5773L40.2558 33.9858H41.0547C41.4388 33.9858 41.7337 33.8467 41.8746 33.7771C42.026 33.6971 42.0658 33.7428 42.1828 33.6312L42.4526 33.4003H44.9471L45.2782 32.304H43.4522L43.771 31.7053H41.9583ZM45.641 38.6902C45.5985 38.6297 45.6291 38.5232 45.6941 38.3013L46.3759 36.0719H48.8013C49.1548 36.0669 49.41 36.0629 49.576 36.0511C49.7543 36.0326 49.9482 35.9698 50.1595 35.8568C50.3776 35.7385 50.4892 35.6138 50.5834 35.4706C50.6885 35.3278 50.8573 35.0152 51.0022 34.5332L51.8592 31.712L49.3423 31.7264C49.3423 31.7264 48.5672 31.8394 48.226 31.964C47.8817 32.1032 47.3897 32.4917 47.3897 32.4917L47.617 31.7184H46.0622L43.8854 38.8502C43.8082 39.1271 43.7565 39.3281 43.7446 39.4488C43.7405 39.5789 43.9106 39.7076 44.0209 39.8047C44.1512 39.9019 44.3437 39.8861 44.5285 39.9019C44.7227 39.9163 44.999 39.9254 45.3804 39.9254H46.5752L46.942 38.702L45.8723 38.8018C45.758 38.8018 45.6754 38.7413 45.641 38.6902ZM46.8158 34.5662H49.3634L49.2014 35.0677C49.1786 35.0794 49.1242 35.0428 48.8649 35.073H46.6589L46.8158 34.5662ZM47.3261 32.8843H49.8951L49.7104 33.4883C49.7104 33.4883 48.4995 33.4765 48.3056 33.5118C47.4523 33.6577 46.9539 34.1081 46.9539 34.1081L47.3261 32.8843ZM49.2584 36.7469C49.2373 36.8219 49.204 36.8676 49.1574 36.9019C49.1057 36.9348 49.022 36.9466 48.8971 36.9466H48.5341L48.5555 36.3359H47.0456L46.9844 39.3215C46.982 39.537 47.0031 39.6617 47.1627 39.7615C47.3222 39.8862 47.8139 39.902 48.4756 39.902H49.4217L49.7633 38.7844L48.9397 38.8291L48.6658 38.8449C48.6283 38.8291 48.5926 38.8147 48.5528 38.7753C48.5181 38.7414 48.4596 38.7622 48.4691 38.5468L48.4756 37.7815L49.3394 37.7462C49.8059 37.7462 50.0052 37.5963 50.1753 37.4534C50.3376 37.3166 50.3907 37.1593 50.4519 36.9466L50.5969 36.269H49.4098L49.2584 36.7469Z" fill="#FEFEFE"></path></svg> 