<?xml version="1.0" encoding="UTF-8"?> <svg xmlns="http://www.w3.org/2000/svg" width="89" height="60" viewBox="0 0 89 60" fill="none"><path fill-rule="evenodd" clip-rule="evenodd" d="M26.8883 40.6456H21.5226L17.499 25.4809C17.308 24.7834 16.9025 24.1667 16.306 23.876C14.8175 23.1456 13.1771 22.5643 11.3877 22.2711V21.6872H20.0314C21.2244 21.6872 22.1191 22.5643 22.2682 23.5828L24.3559 34.5216L29.719 21.6872H34.9356L26.8883 40.6456ZM37.918 40.6456H32.8506L37.0233 21.6872H42.0908L37.918 40.6456ZM48.6468 26.9393C48.796 25.9182 49.6907 25.3344 50.7345 25.3344C52.3748 25.1878 54.1617 25.4809 55.6529 26.2089L56.5476 22.127C55.0564 21.5432 53.4161 21.25 51.9275 21.25C47.0091 21.25 43.4302 23.876 43.4302 27.5206C43.4302 30.2932 45.9653 31.749 47.7547 32.626C49.6907 33.5005 50.4363 34.0844 50.2872 34.9589C50.2872 36.2706 48.796 36.8545 47.3074 36.8545C45.5179 36.8545 43.7285 36.4172 42.0908 35.6868L41.1961 39.7711C42.9855 40.499 44.9214 40.7922 46.7109 40.7922C52.2257 40.9363 55.6529 38.3128 55.6529 34.375C55.6529 29.4162 48.6468 29.1255 48.6468 26.9393ZM73.3877 40.6456L69.3641 21.6872H65.0422C64.1475 21.6872 63.2528 22.2711 62.9545 23.1456L55.5037 40.6456H60.7203L61.7615 37.8755H68.1711L68.7676 40.6456H73.3877ZM65.7878 26.7927L67.2764 33.9378H63.1036L65.7878 26.7927Z" fill="#172B85"></path></svg> 